<?xml version="1.0" encoding="utf-8"?>
<!-- Generator: Adobe Illustrator 18.1.1, SVG Export Plug-In . SVG Version: 6.00 Build 0)  -->
<!DOCTYPE svg PUBLIC "-//W3C//DTD SVG 1.1//EN" "http://www.w3.org/Graphics/SVG/1.1/DTD/svg11.dtd">
<svg version="1.1" id="Layer_1" xmlns="http://www.w3.org/2000/svg" xmlns:xlink="http://www.w3.org/1999/xlink" x="0px" y="0px"
	 viewBox="0 0 3024 3024" enable-background="new 0 0 3024 3024" xml:space="preserve">
<g>
	<g>
		<path fill="#FFFFFF" d="M729.1,1442.9c-4-6.4-9-12.1-15-16.9c-6-4.9-12.8-8.6-20.4-11.4c-7.6-2.7-15.5-4.1-23.8-4.1
			c-15.1,0-28,2.9-38.6,8.8c-10.6,5.9-19.1,13.7-25.7,23.6c-6.6,9.9-11.4,21.1-14.4,33.6c-3,12.6-4.5,25.6-4.5,39
			c0,12.9,1.5,25.4,4.5,37.5c3,12.1,7.8,23.1,14.4,32.8c6.6,9.7,15.1,17.5,25.7,23.4c10.6,5.9,23.4,8.8,38.6,8.8
			c20.6,0,36.6-6.3,48.2-18.9c11.6-12.6,18.6-29.1,21.2-49.7h65.1c-1.7,19.1-6.1,36.4-13.3,51.8c-7.1,15.4-16.6,28.6-28.3,39.4
			c-11.7,10.9-25.4,19.1-41.1,24.9c-15.7,5.7-33,8.6-51.8,8.6c-23.4,0-44.5-4.1-63.2-12.2c-18.7-8.1-34.5-19.3-47.3-33.6
			c-12.9-14.3-22.7-31.1-29.6-50.3c-6.9-19.3-10.3-40.1-10.3-62.3c0-22.8,3.4-44.1,10.3-63.6c6.9-19.6,16.7-36.6,29.6-51.2
			c12.9-14.6,28.6-26,47.3-34.3c18.7-8.3,39.8-12.4,63.2-12.4c16.9,0,32.8,2.4,47.8,7.3c15,4.9,28.4,11.9,40.3,21.2
			c11.9,9.3,21.6,20.8,29.3,34.5c7.7,13.7,12.6,29.4,14.6,47.1h-65.1C735.6,1456.4,733.1,1449.3,729.1,1442.9z"/>
		<path fill="#FFFFFF" d="M1036.7,1361.3v249.4h149.1v56.6H969.4v-305.9H1036.7z"/>
		<path fill="#FFFFFF" d="M1339.6,1451.9c6.9-19.6,16.7-36.6,29.6-51.2c12.9-14.6,28.6-26,47.3-34.3c18.7-8.3,39.8-12.4,63.2-12.4
			c23.7,0,44.8,4.1,63.4,12.4c18.6,8.3,34.3,19.7,47.1,34.3c12.9,14.6,22.7,31.6,29.6,51.2c6.9,19.6,10.3,40.8,10.3,63.6
			c0,22.3-3.4,43.1-10.3,62.3c-6.9,19.3-16.7,36.1-29.6,50.3c-12.9,14.3-28.6,25.5-47.1,33.6c-18.6,8.1-39.7,12.2-63.4,12.2
			c-23.4,0-44.5-4.1-63.2-12.2c-18.7-8.1-34.5-19.3-47.3-33.6c-12.9-14.3-22.7-31.1-29.6-50.3c-6.9-19.3-10.3-40.1-10.3-62.3
			C1329.3,1492.7,1332.8,1471.4,1339.6,1451.9z M1401.1,1553c3,12.1,7.8,23.1,14.4,32.8c6.6,9.7,15.1,17.5,25.7,23.4
			c10.6,5.9,23.4,8.8,38.6,8.8c15.1,0,28-2.9,38.6-8.8c10.6-5.9,19.1-13.6,25.7-23.4c6.6-9.7,11.4-20.6,14.3-32.8
			c3-12.1,4.5-24.6,4.5-37.5c0-13.4-1.5-26.4-4.5-39c-3-12.6-7.8-23.8-14.3-33.6c-6.6-9.9-15.1-17.7-25.7-23.6
			c-10.6-5.9-23.4-8.8-38.6-8.8c-15.1,0-28,2.9-38.6,8.8c-10.6,5.9-19.1,13.7-25.7,23.6c-6.6,9.9-11.4,21.1-14.4,33.6
			c-3,12.6-4.5,25.6-4.5,39C1396.6,1528.4,1398.1,1540.9,1401.1,1553z"/>
		<path fill="#FFFFFF" d="M2363.6,1361.3c19.7,0,38.1,3.1,55.1,9.4c17,6.3,31.7,15.7,44.1,28.3c12.4,12.6,22.1,28.3,29.1,47.1
			c7,18.9,10.5,41,10.5,66.4c0,22.3-2.9,42.8-8.6,61.7c-5.7,18.9-14.4,35.1-25.9,48.8c-11.6,13.7-26,24.5-43.3,32.3
			c-17.3,7.9-37.6,11.8-61.1,11.8h-132v-305.9H2363.6z M2358.9,1610.6c9.7,0,19.1-1.6,28.3-4.7c9.1-3.1,17.3-8.4,24.4-15.6
			c7.1-7.3,12.9-16.8,17.1-28.5c4.3-11.7,6.4-26,6.4-42.8c0-15.4-1.5-29.3-4.5-41.8s-7.9-23.1-14.8-31.9
			c-6.9-8.8-15.9-15.6-27.2-20.4c-11.3-4.7-25.2-7.1-41.8-7.1h-48v192.8H2358.9z"/>
		<g>
			<path fill="#FFFFFF" d="M2019.9,1644.7c-23.2,20.2-55.3,30.3-96.3,30.3c-41.6,0-73.7-10-96.5-30.1c-22.8-20.1-34.2-51-34.2-92.8
				v-190.8h67.5v190.8c0,8.3,0.7,16.5,2.2,24.5c1.4,8,4.4,15.1,9,21.3c4.6,6.2,11,11.2,19.1,15c8.2,3.9,19.1,5.8,32.9,5.8
				c24.1,0,40.7-5.4,49.9-16.1c9.2-10.7,13.7-27.6,13.7-50.5v-190.8h67.5v190.8C2054.7,1593.6,2043.1,1624.5,2019.9,1644.7z
				 M1936.9,1220.4l-45.6,76.1h42.5l70.1-76.1H1936.9z"/>
		</g>
	</g>
	<g>
		<g>
			<path fill="#FFFFFF" d="M2871.3,153.7v2720.7H150.7V153.7H2871.3 M2936,89H86v2850h2850V89L2936,89z"/>
		</g>
	</g>
</g>
</svg>
