<?xml version="1.0" encoding="utf-8"?>
<!-- Generator: Adobe Illustrator 18.1.1, SVG Export Plug-In . SVG Version: 6.00 Build 0)  -->
<!DOCTYPE svg PUBLIC "-//W3C//DTD SVG 1.1//EN" "http://www.w3.org/Graphics/SVG/1.1/DTD/svg11.dtd">
<svg version="1.1" id="Layer_1" xmlns="http://www.w3.org/2000/svg" xmlns:xlink="http://www.w3.org/1999/xlink" x="0px" y="0px"
	 viewBox="1368 0 3024 3024" enable-background="new 1368 0 3024 3024" xml:space="preserve">
<g id="XMLID_1_">
	<g>
		<path fill="#333333" d="M4392,0v3024H1368V0H4392z M4316.4,2948.4V75.6H1443.6v2872.8H4316.4z"/>
		<path fill="#333333" d="M4242.7,149.3v2725.4H1517.3V149.3H4242.7z M3879.4,1510.5c0-25.7-3.4-48-10.6-66.9
			c-7.2-18.9-17-34.8-29.5-47.6c-12.5-12.9-27.2-22.3-44.6-28.3c-17-6.4-35.5-9.5-55.6-9.5h-133.1v308.4h133.1
			c23.4,0,44.2-4.2,61.6-11.7c17.4-7.9,31.8-18.9,43.5-32.5c11.7-14,20.4-30.2,26.1-49.1C3876.4,1553.6,3879.4,1532.8,3879.4,1510.5
			z M3428.1,1550.2v-192.4h-68v192.4c0,23.1-4.5,40.1-14,51c-9.4,11-26.1,16.3-50.3,16.3c-14,0-24.9-1.9-33.3-6
			c-8.3-3.8-14.7-9.1-19.3-15.1c-4.5-6-7.6-13.2-9.1-21.5c-1.5-7.9-2.3-16.3-2.3-24.6v-192.4h-68v192.4c0,42.3,11.3,73.3,34.4,93.7
			c23.1,20.4,55.6,30.2,97.1,30.2c41.2,0,73.7-10.2,97.1-30.6C3416.4,1623.5,3428.1,1592.1,3428.1,1550.2z M3306.4,1292.8l70.7-76.7
			h-67.7l-46.1,76.7H3306.4z M3000.2,1513.5c0-23.1-3.4-44.6-10.2-64.3c-6.8-19.7-17-37-29.9-51.4c-12.9-14.7-28.7-26.1-47.6-34.4
			c-18.9-8.3-40.1-12.5-63.9-12.5c-23.4,0-45,4.2-63.9,12.5c-18.9,8.3-34.8,19.7-47.6,34.4c-12.9,14.7-23.1,31.8-29.9,51.4
			s-10.6,41.2-10.6,64.3c0,22.3,3.4,43.5,10.6,62.7c6.8,19.7,17,36.3,29.9,50.7c12.9,14.4,28.7,25.7,47.6,34
			c18.9,8.3,40.1,12.1,63.9,12.1s45.4-4.2,63.9-12.1c18.5-8.3,34.4-19.7,47.6-34c12.9-14.4,22.7-31.4,29.9-50.7
			C2996.8,1557,3000.2,1535.8,3000.2,1513.5z M2552.3,1666.6v-57.1h-150.4v-251.4h-67.7v308.4H2552.3z M2167.8,1547.5h-65.8
			c-2.6,20.8-9.8,37.4-21.5,49.9c-11.7,12.9-28,18.9-48.8,18.9c-15.1,0-28.3-3-38.9-9.1c-10.6-6-19.3-13.6-25.7-23.4
			c-6.8-9.8-11.3-20.8-14.4-32.9c-3-12.1-4.5-24.9-4.5-37.8c0-13.6,1.5-26.5,4.5-39.3c3-12.9,7.9-23.8,14.4-34
			c6.8-9.8,15.1-17.8,25.7-23.8c10.6-6,23.4-8.7,38.9-8.7c8.3,0,16.3,1.5,23.8,4.2c7.6,2.6,14.4,6.4,20.4,11.3
			c6,4.9,11,10.6,15.1,17c4.2,6.4,6.8,13.6,7.9,21.5h65.8c-1.9-17.8-6.8-33.6-14.7-47.6c-7.9-13.6-17.8-25.3-29.5-34.8
			c-12.1-9.5-25.3-16.6-40.4-21.5c-15.1-4.9-31-7.2-48-7.2c-23.4,0-45,4.2-63.9,12.5c-18.9,8.3-34.8,19.7-47.6,34.4
			c-12.9,14.7-23.1,31.8-29.9,51.4c-6.8,19.7-10.6,41.2-10.6,64.3c0,22.3,3.4,43.5,10.6,62.7c6.8,19.7,16.6,36.3,29.9,50.7
			c12.9,14.4,28.7,25.7,47.6,34c18.9,8.3,40.1,12.1,63.9,12.1c18.9,0,36.3-3,52.2-8.7s29.9-14,41.6-24.9
			c11.7-11,21.2-24.2,28.3-39.7C2161.4,1584.2,2166,1566.8,2167.8,1547.5z"/>
		<path fill="#333333" d="M3806.9,1475c3,12.5,4.5,26.5,4.5,42c0,17-2.3,31.4-6.4,43.1c-4.2,11.7-10.2,21.5-17.4,28.7
			c-7.2,7.2-15.5,12.5-24.6,15.9c-9.1,3.4-18.9,4.5-28.3,4.5h-60.5v-194.3h48.4c16.6,0,30.6,2.3,42,7.2
			c11.3,4.9,20.4,11.7,27.6,20.4C3798.9,1451.5,3804.2,1462.5,3806.9,1475z"/>
		<path fill="#333333" d="M2927.6,1474.2c3,12.9,4.5,25.7,4.5,39.3c0,12.9-1.5,25.7-4.5,37.8c-3,12.1-7.9,23.1-14.4,32.9
			c-6.8,9.8-15.1,17.8-26.1,23.4c-10.6,6-23.4,9.1-38.9,9.1c-15.1,0-28.3-3-38.9-9.1c-10.6-6-19.3-13.6-26.1-23.4
			s-11.3-20.8-14.4-32.9c-3-12.1-4.5-24.9-4.5-37.8c0-13.6,1.5-26.5,4.5-39.3c3-12.9,7.9-23.8,14.4-34c6.8-9.8,15.1-17.8,26.1-23.8
			c10.6-6,23.4-8.7,38.9-8.7c15.1,0,28.4,3,38.9,8.7c10.6,5.7,19.3,14,26.1,23.8C2919.7,1450.4,2924.6,1461.3,2927.6,1474.2z"/>
	</g>
</g>
</svg>
