<?xml version="1.0" encoding="utf-8"?>
<!-- Generator: Adobe Illustrator 18.1.1, SVG Export Plug-In . SVG Version: 6.00 Build 0)  -->
<!DOCTYPE svg PUBLIC "-//W3C//DTD SVG 1.1//EN" "http://www.w3.org/Graphics/SVG/1.1/DTD/svg11.dtd">
<svg version="1.1" id="Layer_1" xmlns="http://www.w3.org/2000/svg" xmlns:xlink="http://www.w3.org/1999/xlink" x="0px" y="0px"
	 viewBox="0 0 800 800" style="enable-background:new 0 0 800 800;" xml:space="preserve">
<style type="text/css">
	.st0{fill:#FFFFFF;}
</style>
<g id="XMLID_1_">
	<g>
		<path class="st0" d="M800,0v800H0V0H800z M780,780V20H20v760H780z"/>
		<path class="st0" d="M760.5,39.5v721h-721v-721H760.5z M664.4,399.6c0-6.8-0.9-12.7-2.8-17.7c-1.9-5-4.5-9.2-7.8-12.6
			c-3.3-3.4-7.2-5.9-11.8-7.5c-4.5-1.7-9.4-2.5-14.7-2.5h-35.2v81.6h35.2c6.2,0,11.7-1.1,16.3-3.1c4.6-2.1,8.4-5,11.5-8.6
			c3.1-3.7,5.4-8,6.9-13C663.6,411,664.4,405.5,664.4,399.6z M545,410.1v-50.9h-18v50.9c0,6.1-1.2,10.6-3.7,13.5
			c-2.5,2.9-6.9,4.3-13.3,4.3c-3.7,0-6.6-0.5-8.8-1.6c-2.2-1-3.9-2.4-5.1-4c-1.2-1.6-2-3.5-2.4-5.7c-0.4-2.1-0.6-4.3-0.6-6.5v-50.9
			h-18v50.9c0,11.2,3,19.4,9.1,24.8c6.1,5.4,14.7,8,25.7,8c10.9,0,19.5-2.7,25.7-8.1C541.9,429.5,545,421.2,545,410.1z M512.8,342
			l18.7-20.3h-17.9L501.4,342H512.8z M431.8,400.4c0-6.1-0.9-11.8-2.7-17c-1.8-5.2-4.5-9.8-7.9-13.6c-3.4-3.9-7.6-6.9-12.6-9.1
			c-5-2.2-10.6-3.3-16.9-3.3c-6.2,0-11.9,1.1-16.9,3.3c-5,2.2-9.2,5.2-12.6,9.1c-3.4,3.9-6.1,8.4-7.9,13.6c-1.8,5.2-2.8,10.9-2.8,17
			c0,5.9,0.9,11.5,2.8,16.6c1.8,5.2,4.5,9.6,7.9,13.4s7.6,6.8,12.6,9c5,2.2,10.6,3.2,16.9,3.2c6.3,0,12-1.1,16.9-3.2
			c4.9-2.2,9.1-5.2,12.6-9c3.4-3.8,6-8.3,7.9-13.4C430.9,411.9,431.8,406.3,431.8,400.4z M313.3,440.9v-15.1h-39.8v-66.5h-17.9v81.6
			H313.3z M211.6,409.4h-17.4c-0.7,5.5-2.6,9.9-5.7,13.2c-3.1,3.4-7.4,5-12.9,5c-4,0-7.5-0.8-10.3-2.4c-2.8-1.6-5.1-3.6-6.8-6.2
			c-1.8-2.6-3-5.5-3.8-8.7c-0.8-3.2-1.2-6.6-1.2-10c0-3.6,0.4-7,1.2-10.4c0.8-3.4,2.1-6.3,3.8-9c1.8-2.6,4-4.7,6.8-6.3
			c2.8-1.6,6.2-2.3,10.3-2.3c2.2,0,4.3,0.4,6.3,1.1c2,0.7,3.8,1.7,5.4,3c1.6,1.3,2.9,2.8,4,4.5c1.1,1.7,1.8,3.6,2.1,5.7h17.4
			c-0.5-4.7-1.8-8.9-3.9-12.6c-2.1-3.6-4.7-6.7-7.8-9.2c-3.2-2.5-6.7-4.4-10.7-5.7c-4-1.3-8.2-1.9-12.7-1.9
			c-6.2,0-11.9,1.1-16.9,3.3c-5,2.2-9.2,5.2-12.6,9.1c-3.4,3.9-6.1,8.4-7.9,13.6c-1.8,5.2-2.8,10.9-2.8,17c0,5.9,0.9,11.5,2.8,16.6
			c1.8,5.2,4.4,9.6,7.9,13.4c3.4,3.8,7.6,6.8,12.6,9c5,2.2,10.6,3.2,16.9,3.2c5,0,9.6-0.8,13.8-2.3c4.2-1.5,7.9-3.7,11-6.6
			c3.1-2.9,5.6-6.4,7.5-10.5C209.9,419.1,211.1,414.5,211.6,409.4z"/>
		<path class="st0" d="M645.2,390.2c0.8,3.3,1.2,7,1.2,11.1c0,4.5-0.6,8.3-1.7,11.4c-1.1,3.1-2.7,5.7-4.6,7.6
			c-1.9,1.9-4.1,3.3-6.5,4.2s-5,1.2-7.5,1.2h-16v-51.4h12.8c4.4,0,8.1,0.6,11.1,1.9c3,1.3,5.4,3.1,7.3,5.4
			C643.1,384,644.5,386.9,645.2,390.2z"/>
		<path class="st0" d="M412.6,390c0.8,3.4,1.2,6.8,1.2,10.4c0,3.4-0.4,6.8-1.2,10c-0.8,3.2-2.1,6.1-3.8,8.7c-1.8,2.6-4,4.7-6.9,6.2
			c-2.8,1.6-6.2,2.4-10.3,2.4c-4,0-7.5-0.8-10.3-2.4c-2.8-1.6-5.1-3.6-6.9-6.2c-1.8-2.6-3-5.5-3.8-8.7c-0.8-3.2-1.2-6.6-1.2-10
			c0-3.6,0.4-7,1.2-10.4c0.8-3.4,2.1-6.3,3.8-9c1.8-2.6,4-4.7,6.9-6.3c2.8-1.6,6.2-2.3,10.3-2.3c4,0,7.5,0.8,10.3,2.3
			s5.1,3.7,6.9,6.3C410.5,383.7,411.8,386.6,412.6,390z"/>
	</g>
	<g>
	</g>
</g>
</svg>
